<?xml version="1.0"?>
<svg width="509.11181184668993" height="419.55407637422394" xmlns="http://www.w3.org/2000/svg" xmlns:svg="http://www.w3.org/2000/svg" version="1.0" preserveAspectRatio="xMidYMid meet">
 <g class="layer">
  <title>Layer 1</title>
  <path fill="#000000" d="m45.02,18.6l135,0" stroke="#ffffff" stroke-width="35" stroke-miterlimit="4" id="svg_1"/>
  <path fill="#000000" d="m226.94,107.1l234.58,0" stroke="#ffffff" stroke-width="35" stroke-miterlimit="4" id="svg_2"/>
  <path fill="#000000" d="m204.55,32.53l22.39,74.57" stroke="#ffffff" stroke-width="35" stroke-miterlimit="4" id="svg_3"/>
  <path fill="#000000" d="m19.89,42.1l0,329.6" stroke="#ffffff" stroke-width="35" stroke-miterlimit="4" id="svg_4"/>
  <path fill="#000000" d="m45.02,399.88l416.5,0" stroke="#ffffff" stroke-width="35" stroke-miterlimit="4" id="svg_5"/>
  <path fill="#000000" d="m489.64,132.05l0,239.64" stroke="#ffffff" stroke-width="35" stroke-miterlimit="4" id="svg_6"/>
  <path fill="#000000" d="m57.98,18.6c-24.41,-1.59 -37.11,9.85 -38.09,34.29" stroke="#ffffff" stroke-width="35" stroke-miterlimit="4" id="svg_7"/>
  <path fill="#000000" d="m174.9,18.6c23.17,2.69 33.06,10.51 29.65,23.49" stroke="#ffffff" stroke-width="35" stroke-miterlimit="4" id="svg_8"/>
  <path fill="#000000" d="m226.94,91.51c-5.99,13.86 -1.64,19.06 13.06,15.6" stroke="#ffffff" stroke-width="35" stroke-miterlimit="4" id="svg_9"/>
  <path fill="#000000" d="m448.51,107.11c30.68,-0.51 44.39,14.49 41.13,45" stroke="#ffffff" stroke-width="35" stroke-miterlimit="4" id="svg_10"/>
  <path fill="#000000" d="m19.89,360.9c-2.82,28.15 9.88,41.15 38.09,38.98" stroke="#ffffff" stroke-width="35" stroke-miterlimit="4" id="svg_11"/>
  <path fill="#000000" d="m489.64,360.89c2.03,24.78 -9.36,37.94 -34.18,39.46" stroke="#ffffff" stroke-width="35" stroke-miterlimit="4" id="svg_12"/>
  <path fill="#000000" d="m222.02,67.89l205.69,0" stroke="#ffffff" stroke-width="35" stroke-miterlimit="4" id="svg_13"/>
  <path fill="#000000" d="m427.7,67.93c30.68,-0.51 44.39,14.49 41.13,45" stroke="#ffffff" stroke-width="35" stroke-miterlimit="4" id="svg_14"/>
 </g>
</svg>